<svg width="35" height="35" viewBox="0 0 35 35" fill="none" xmlns="http://www.w3.org/2000/svg">
<rect width="35" height="35" rx="6" fill="#D9D9D9"/>
<path d="M8.11373 9.42308V8.42308H7.11373V9.42308H8.11373ZM26.8866 9.42308H27.8866V8.42308H26.8866V9.42308ZM26.8866 29.6154V30.6154H27.8866V29.6154H26.8866ZM8.11373 29.6154H7.11373V30.6154H8.11373V29.6154ZM6.28223 6.73077V5.73077C5.72994 5.73077 5.28223 6.17849 5.28223 6.73077H6.28223ZM28.7181 6.73077H29.7181C29.7181 6.17849 29.2704 5.73077 28.7181 5.73077V6.73077ZM28.7181 9.42308V10.4231C29.2704 10.4231 29.7181 9.97537 29.7181 9.42308H28.7181ZM6.28223 9.42308H5.28223C5.28223 9.97537 5.72994 10.4231 6.28223 10.4231V9.42308ZM19.1027 6.73077V7.73077H20.1027V6.73077H19.1027ZM15.8976 6.73077H14.8976V7.73077H15.8976V6.73077ZM10.7767 24.6795C10.7767 25.2318 11.2244 25.6795 11.7767 25.6795C12.329 25.6795 12.7767 25.2318 12.7767 24.6795H10.7767ZM12.7767 13.9103C12.7767 13.358 12.329 12.9103 11.7767 12.9103C11.2244 12.9103 10.7767 13.358 10.7767 13.9103H12.7767ZM14.4397 24.6795C14.4397 25.2318 14.8875 25.6795 15.4397 25.6795C15.992 25.6795 16.4397 25.2318 16.4397 24.6795H14.4397ZM16.4397 13.9103C16.4397 13.358 15.992 12.9103 15.4397 12.9103C14.8875 12.9103 14.4397 13.358 14.4397 13.9103H16.4397ZM18.5606 24.6795C18.5606 25.2318 19.0083 25.6795 19.5606 25.6795C20.1129 25.6795 20.5606 25.2318 20.5606 24.6795H18.5606ZM20.5606 13.9103C20.5606 13.358 20.1129 12.9103 19.5606 12.9103C19.0083 12.9103 18.5606 13.358 18.5606 13.9103H20.5606ZM22.2236 24.6795C22.2236 25.2318 22.6713 25.6795 23.2236 25.6795C23.7759 25.6795 24.2236 25.2318 24.2236 24.6795H22.2236ZM24.2236 13.9103C24.2236 13.358 23.7759 12.9103 23.2236 12.9103C22.6713 12.9103 22.2236 13.358 22.2236 13.9103H24.2236ZM8.11373 10.4231H26.8866V8.42308H8.11373V10.4231ZM25.8866 9.42308V29.6154H27.8866V9.42308H25.8866ZM26.8866 28.6154H8.11373V30.6154H26.8866V28.6154ZM9.11373 29.6154V9.42308H7.11373V29.6154H9.11373ZM6.28223 7.73077H28.7181V5.73077H6.28223V7.73077ZM27.7181 6.73077V9.42308H29.7181V6.73077H27.7181ZM28.7181 8.42308H6.28223V10.4231H28.7181V8.42308ZM7.28223 9.42308V6.73077H5.28223V9.42308H7.28223ZM16.8976 5.48718H18.1027V3.48718H16.8976V5.48718ZM18.1027 5.48718V6.73077H20.1027V5.48718H18.1027ZM19.1027 5.73077H15.8976V7.73077H19.1027V5.73077ZM16.8976 6.73077V5.48718H14.8976V6.73077H16.8976ZM12.7767 24.6795L12.7767 13.9103H10.7767L10.7767 24.6795H12.7767ZM16.4397 24.6795L16.4397 13.9103H14.4397L14.4397 24.6795H16.4397ZM20.5606 24.6795L20.5606 13.9103H18.5606L18.5606 24.6795H20.5606ZM24.2236 24.6795L24.2236 13.9103H22.2236L22.2236 24.6795H24.2236ZM18.1027 5.48718L18.1027 5.48718H20.1027C20.1027 4.38261 19.2073 3.48718 18.1027 3.48718V5.48718ZM16.8976 3.48718C15.793 3.48718 14.8976 4.38261 14.8976 5.48718H16.8976V5.48718V3.48718Z" fill="black"/>
</svg>
