<svg width="20" height="20" viewBox="0 0 20 20" fill="none" xmlns="http://www.w3.org/2000/svg">
<circle cx="10" cy="10" r="10" fill="#C4C4C4"/>
<path d="M11.6671 10C11.6671 9.14444 10.9814 8.44444 10.1433 8.44444C9.30512 8.44444 8.61938 9.14444 8.61938 10C8.61938 10.8556 9.30512 11.5556 10.1433 11.5556C10.9814 11.5556 11.6671 10.8556 11.6671 10ZM10.1433 3C8.32455 3 6.58033 3.7375 5.29431 5.05025C4.00829 6.36301 3.28581 8.14348 3.28581 10H1L4.04775 13.1111L7.0955 10H4.80969C4.80969 6.99 7.19455 4.55556 10.1433 4.55556C13.092 4.55556 15.4768 6.99 15.4768 10C15.4779 11.0001 15.2088 11.9811 14.6993 12.8352C14.1898 13.6894 13.4595 14.3837 12.5887 14.8418C11.7178 15.3 10.7401 15.5042 9.763 15.4322C8.78585 15.3601 7.84707 15.0145 7.04979 14.4333L5.96783 15.5533C6.83236 16.2305 7.84255 16.6877 8.91468 16.8869C9.98681 17.0861 11.09 17.0215 12.1328 16.6987C13.1757 16.3758 14.1281 15.8039 14.9112 15.0304C15.6943 14.2568 16.2856 13.3039 16.6359 12.2505C16.9863 11.1972 17.0857 10.0738 16.9259 8.97341C16.766 7.87304 16.3516 6.8274 15.7169 5.92314C15.0823 5.01887 14.2456 4.28203 13.2763 3.77368C12.307 3.26533 11.233 3.00011 10.1433 3Z" fill="black"/>
</svg>
