<svg width="17" height="17" viewBox="0 0 17 17" fill="none" xmlns="http://www.w3.org/2000/svg">
<circle cx="8.5" cy="8.5" r="8" fill="#0CC270" stroke="black"/>
<path d="M8.231 3.54166C9.27933 3.54166 10.0727 3.7636 10.611 4.20749C11.1493 4.64193 11.4185 5.2511 11.4185 6.03499C11.4185 6.43166 11.3524 6.77166 11.2202 7.05499C11.0879 7.33832 10.9179 7.57916 10.7102 7.77749C10.5024 7.97582 10.2191 8.20721 9.86016 8.47166C9.44461 8.78332 9.15183 9.01943 8.98183 9.17999C8.82127 9.3311 8.70322 9.50582 8.62766 9.70416C8.56155 9.89305 8.51433 10.1764 8.486 10.5542H7.296C7.32433 9.89305 7.48016 9.34055 7.7635 8.89666C8.05627 8.44332 8.54266 7.96638 9.22266 7.46582C9.46822 7.29582 9.64766 7.15888 9.761 7.05499C9.87433 6.9511 9.96405 6.81888 10.0302 6.65832C10.1057 6.48832 10.1435 6.27582 10.1435 6.02082C10.1435 5.53916 9.99711 5.18027 9.70433 4.94416C9.41155 4.70805 8.92516 4.58999 8.24516 4.58999C7.5085 4.58999 6.89461 4.72221 6.4035 4.98666L7.01266 6.55916C6.956 6.71971 6.84266 6.85193 6.67266 6.95582C6.51211 7.05027 6.3185 7.09749 6.09183 7.09749C5.73294 7.09749 5.45433 6.97943 5.256 6.74332C5.05766 6.50721 4.9585 6.18138 4.9585 5.76582C4.9585 5.0386 5.26072 4.4861 5.86516 4.10832C6.47905 3.73055 7.26766 3.54166 8.231 3.54166ZM7.891 11.5317C8.19322 11.5317 8.42933 11.6167 8.59933 11.7867C8.76933 11.9472 8.85433 12.1833 8.85433 12.495C8.85433 12.8067 8.76933 13.0475 8.59933 13.2175C8.42933 13.378 8.19322 13.4583 7.891 13.4583C7.58877 13.4583 7.35266 13.378 7.18266 13.2175C7.01266 13.0475 6.92766 12.8067 6.92766 12.495C6.92766 12.1833 7.01266 11.9472 7.18266 11.7867C7.35266 11.6167 7.58877 11.5317 7.891 11.5317Z" fill="white"/>
</svg>
