<svg width="30" height="30" viewBox="0 0 30 30" fill="none" xmlns="http://www.w3.org/2000/svg">
<circle r="14" transform="matrix(-1 0 0 1 15 15)" stroke="white" stroke-width="2"/>
<path d="M15.8408 10.8486V23H13.752V10.8486H15.8408ZM13.5947 7.62549C13.5947 7.28857 13.6958 7.00407 13.8979 6.77197C14.1076 6.53988 14.4146 6.42383 14.8188 6.42383C15.2157 6.42383 15.5189 6.53988 15.7285 6.77197C15.9456 7.00407 16.0542 7.28857 16.0542 7.62549C16.0542 7.94743 15.9456 8.22445 15.7285 8.45654C15.5189 8.68115 15.2157 8.79346 14.8188 8.79346C14.4146 8.79346 14.1076 8.68115 13.8979 8.45654C13.6958 8.22445 13.5947 7.94743 13.5947 7.62549Z" fill="white"/>
</svg>
