<svg width="27" height="30" viewBox="0 0 27 30" fill="none" xmlns="http://www.w3.org/2000/svg">
<path d="M3.04082 6.5V5.5H2.04082V6.5H3.04082ZM23.9592 6.5H24.9592V5.5H23.9592V6.5ZM23.9592 29V30H24.9592V29H23.9592ZM3.04082 29H2.04082V30H3.04082V29ZM1 3.5V2.5C0.447715 2.5 0 2.94772 0 3.5H1ZM26 3.5H27C27 2.94772 26.5523 2.5 26 2.5V3.5ZM26 6.5V7.5C26.5523 7.5 27 7.05228 27 6.5H26ZM1 6.5H0C0 7.05228 0.447715 7.5 1 7.5L1 6.5ZM15.2857 3.5V4.5H16.2857V3.5H15.2857ZM11.7143 3.5H10.7143V4.5H11.7143V3.5ZM6.12245 23.5C6.12245 24.0523 6.57017 24.5 7.12245 24.5C7.67473 24.5 8.12245 24.0523 8.12245 23.5L6.12245 23.5ZM8.12245 11.5C8.12245 10.9477 7.67473 10.5 7.12245 10.5C6.57016 10.5 6.12245 10.9477 6.12245 11.5L8.12245 11.5ZM10.2041 23.5C10.2041 24.0523 10.6518 24.5 11.2041 24.5C11.7564 24.5 12.2041 24.0523 12.2041 23.5L10.2041 23.5ZM12.2041 11.5C12.2041 10.9477 11.7564 10.5 11.2041 10.5C10.6518 10.5 10.2041 10.9477 10.2041 11.5L12.2041 11.5ZM14.7959 23.5C14.7959 24.0523 15.2436 24.5 15.7959 24.5C16.3482 24.5 16.7959 24.0523 16.7959 23.5L14.7959 23.5ZM16.7959 11.5C16.7959 10.9477 16.3482 10.5 15.7959 10.5C15.2436 10.5 14.7959 10.9477 14.7959 11.5L16.7959 11.5ZM18.8776 23.5C18.8776 24.0523 19.3253 24.5 19.8776 24.5C20.4298 24.5 20.8776 24.0523 20.8776 23.5L18.8776 23.5ZM20.8776 11.5C20.8776 10.9477 20.4298 10.5 19.8776 10.5C19.3253 10.5 18.8776 10.9477 18.8776 11.5L20.8776 11.5ZM3.04082 7.5H23.9592V5.5H3.04082V7.5ZM22.9592 6.5V29H24.9592V6.5H22.9592ZM23.9592 28H3.04082V30H23.9592V28ZM4.04082 29V6.5H2.04082V29H4.04082ZM1 4.5H26V2.5H1V4.5ZM25 3.5V6.5H27V3.5H25ZM26 5.5H1V7.5H26V5.5ZM2 6.5V3.5H0V6.5H2ZM12.7143 2H14.2857V0H12.7143V2ZM14.2857 2V3.5H16.2857V2H14.2857ZM15.2857 2.5H11.7143V4.5H15.2857V2.5ZM12.7143 3.5V2H10.7143V3.5H12.7143ZM8.12245 23.5L8.12245 11.5L6.12245 11.5L6.12245 23.5L8.12245 23.5ZM12.2041 23.5L12.2041 11.5L10.2041 11.5L10.2041 23.5L12.2041 23.5ZM16.7959 23.5L16.7959 11.5L14.7959 11.5L14.7959 23.5L16.7959 23.5ZM20.8776 23.5L20.8776 11.5L18.8776 11.5L18.8776 23.5L20.8776 23.5ZM14.2857 2L14.2857 2H16.2857C16.2857 0.89543 15.3903 0 14.2857 0V2ZM12.7143 0C11.6097 0 10.7143 0.89543 10.7143 2H12.7143L12.7143 2V0Z" fill="black"/>
</svg>
