<svg width="50" height="50" viewBox="0 0 50 50" fill="none" xmlns="http://www.w3.org/2000/svg">
<circle cx="25" cy="25" r="25" fill="#0CC270"/>
<path d="M8 25.5C8 28.3486 10.3753 30.6667 13.2941 30.6667C14.6953 30.6667 15.9624 30.1242 16.91 29.2544L27.4824 35.1513C27.4506 35.3752 27.4118 35.5991 27.4118 35.8333C27.4118 38.6819 29.7871 41 32.7059 41C35.6247 41 38 38.6819 38 35.8333C38 32.9848 35.6247 30.6667 32.7059 30.6667C31.3047 30.6667 30.0376 31.2092 29.09 32.0789L18.5176 26.1837C18.5494 25.9581 18.5882 25.7342 18.5882 25.5C18.5882 25.2658 18.5494 25.0419 18.5176 24.8163L29.09 18.9211C30.0376 19.7908 31.3047 20.3333 32.7059 20.3333C35.6247 20.3333 38 18.0152 38 15.1667C38 12.3181 35.6247 10 32.7059 10C29.7871 10 27.4118 12.3181 27.4118 15.1667C27.4118 15.4009 27.4506 15.6248 27.4824 15.8504L16.91 21.7456C15.9341 20.8408 14.6401 20.3354 13.2941 20.3333C10.3753 20.3333 8 22.6514 8 25.5Z" fill="white"/>
</svg>
